# xmcd CD database file
#
# Track frame offsets:
#	150
#	13577
#	29547
#	46532
#	66035
#	79946
#	94901
#	110317
#	125155
#	140547
#	155867
#	174321
#	187517
#
# Disc length: 2722 seconds
#
# Revision: 0
# Processed by: cddbd v1.5.2PL0 Copyright (c) Steve Scherf et al.
# Submitted via: CDex 1.51
#
DISCID=a40aa00d
DTITLE=ZE VARINI E TONINHO LIMA - VELHO CARRO
DYEAR=2009
DGENRE=Country
TTITLE0=TONINHO LIMA E ZÉ VARINI - VELHO CARRO
TTITLE1=TONINHO LIMA E ZÉ VARINI - CABOCLO SERTANEJO
TTITLE2=TONINHO LIMA E ZÉ VARINI - CACHORRO VALENTE
TTITLE3=TONINHO LIMA E ZÉ VARINI - CADEIRA VELHA
TTITLE4=TONINHO LIMA E ZÉ VARINI - AMIGO
TTITLE5=TONINHO LIMA E ZÉ VARINI - CHURRASCO DE BODE
TTITLE6=TONINHO LIMA E ZÉ VARINI - MEU PEDAÇO DE SERTÃO
TTITLE7=TONINHO LIMA E ZÉ VARINI - MINHA INFÂNCIA
TTITLE8=TONINHO LIMA E ZÉ VARINI - NEM QUE EU TENHA QUE MORRER
TTITLE9=TONINHO LIMA E ZÉ VARINI - MEU PAI
TTITLE10=TONINHO LIMA E ZÉ VARINI - REVIVENDO O PASSADO
TTITLE11=TONINHO LIMA E ZÉ VARINI - VALOR DO CHICOTE
TTITLE12=TONINHO LIMA E ZÉ VARINI - ESTRADA CRUEL
EXTD=YEAR: 2009
EXTT0=
EXTT1=
EXTT2=
EXTT3=
EXTT4=
EXTT5=
EXTT6=
EXTT7=
EXTT8=
EXTT9=
EXTT10=
EXTT11=
EXTT12=
PLAYORDER=
